HIERARCHY
ROOT Hips
{
	OFFSET 0.000000 83.214638 0.000000
	CHANNELS 6 Xposition Yposition Zposition Xrotation Yrotation Zrotation
	JOINT Pelvis
	{
		OFFSET 0.000000 0.000000 0.000000
		CHANNELS 3 Xrotation Yrotation Zrotation
		JOINT LeftUpLeg
		{
			OFFSET 8.479700 -4.795502 -0.379100
			CHANNELS 3 Xrotation Yrotation Zrotation
			JOINT LeftLeg
			{
				OFFSET 0.024144 -32.555107 0.112900
				CHANNELS 3 Xrotation Yrotation Zrotation
				JOINT LeftFoot
				{
					OFFSET -0.024144 -32.638630 -3.012600
					CHANNELS 3 Xrotation Yrotation Zrotation
					JOINT LeftToeBase
					{
						OFFSET 0.970200 -13.225400 11.864200
						CHANNELS 3 Xrotation Yrotation Zrotation
						End Site
						{
							OFFSET 0.000000 12.319262 0.000000
						}
					}
					JOINT LFootTongue
					{
						OFFSET 1.142400 -1.059800 6.665200
						CHANNELS 3 Xrotation Yrotation Zrotation
						End Site
						{
							OFFSET 0.000000 12.319262 0.000000
						}
					}
				}
				JOINT LeftPantLeg
				{
					OFFSET 0.918482 -16.533964 -2.284700
					CHANNELS 3 Xrotation Yrotation Zrotation
					End Site
					{
						OFFSET 0.350399 24.744368 0.000000
					}
				}
			}
		}
		JOINT RightUpLeg
		{
			OFFSET -8.479700 -4.795502 -0.379100
			CHANNELS 3 Xrotation Yrotation Zrotation
			JOINT RightLeg
			{
				OFFSET -0.023144 -32.555092 0.112900
				CHANNELS 3 Xrotation Yrotation Zrotation
				JOINT RightFoot
				{
					OFFSET 0.023144 -32.638641 -3.012700
					CHANNELS 3 Xrotation Yrotation Zrotation
					JOINT RightToeBase
					{
						OFFSET -0.970200 -13.225400 11.864200
						CHANNELS 3 Xrotation Yrotation Zrotation
						End Site
						{
							OFFSET 0.000000 12.319244 0.000000
						}
					}
					JOINT RFootTongue
					{
						OFFSET -1.142200 -1.059800 6.665200
						CHANNELS 3 Xrotation Yrotation Zrotation
						End Site
						{
							OFFSET 0.000000 12.319243 0.000000
						}
					}
				}
				JOINT RightPantLeg
				{
					OFFSET -0.919482 -16.533978 -2.284800
					CHANNELS 3 Xrotation Yrotation Zrotation
					End Site
					{
						OFFSET -0.350400 24.744419 0.000000
					}
				}
			}
		}
	}
	JOINT Spine
	{
		OFFSET 0.000000 7.722000 1.166200
		CHANNELS 3 Xrotation Yrotation Zrotation
		JOINT Spine1
		{
			OFFSET 0.000000 12.024101 0.248800
			CHANNELS 3 Xrotation Yrotation Zrotation
			JOINT Spine2
			{
				OFFSET 0.000000 11.502998 -0.491200
				CHANNELS 3 Xrotation Yrotation Zrotation
				JOINT Neck
				{
					OFFSET 0.000000 18.430702 -3.123100
					CHANNELS 3 Xrotation Yrotation Zrotation
					JOINT Head
					{
						OFFSET 0.000000 9.051102 1.034000
						CHANNELS 3 Xrotation Yrotation Zrotation
						JOINT HairB
						{
							OFFSET 0.208400 24.786102 24.822300
							CHANNELS 3 Xrotation Yrotation Zrotation
							End Site
							{
								OFFSET 0.000000 32.263779 0.000000
							}
						}
						JOINT HairA
						{
							OFFSET -7.081100 24.428299 23.196600
							CHANNELS 3 Xrotation Yrotation Zrotation
							End Site
							{
								OFFSET 0.000000 32.263779 0.000000
							}
						}
						JOINT Hat
						{
							OFFSET 16.728800 15.048294 -15.439601
							CHANNELS 3 Xrotation Yrotation Zrotation
							End Site
							{
								OFFSET 0.000000 32.263779 0.000000
							}
						}
					}
				}
				JOINT LeftShoulder
				{
					OFFSET 6.197800 13.665199 -4.064700
					CHANNELS 3 Xrotation Yrotation Zrotation
					JOINT LeftArm
					{
						OFFSET 7.778100 -0.187103 -1.709300
						CHANNELS 3 Xrotation Yrotation Zrotation
						JOINT LeftForeArm
						{
							OFFSET 22.049376 0.000000 0.000000
							CHANNELS 3 Xrotation Yrotation Zrotation
							JOINT LeftHand
							{
								OFFSET 23.009392 0.000000 0.000000
								CHANNELS 3 Xrotation Yrotation Zrotation
								JOINT LeftHandThumb1
								{
									OFFSET 3.507191 -2.063065 3.133727
									CHANNELS 3 Xrotation Yrotation Zrotation
									JOINT LeftHandThumb2
									{
										OFFSET 3.101337 -1.790558 1.790558
										CHANNELS 3 Xrotation Yrotation Zrotation
										JOINT LeftHandThumb3
										{
											OFFSET 3.058640 -1.765907 1.765906
											CHANNELS 3 Xrotation Yrotation Zrotation
											End Site
											{
												OFFSET -0.415260 3.926476 -0.049563
											}
										}
									}
								}
								JOINT LeftHandIndex1
								{
									OFFSET 11.334419 -0.901459 3.706815
									CHANNELS 3 Xrotation Yrotation Zrotation
									JOINT LeftHandIndex2
									{
										OFFSET 3.283112 0.000000 0.000000
										CHANNELS 3 Xrotation Yrotation Zrotation
										JOINT LeftHandIndex3
										{
											OFFSET 3.323853 0.000000 0.000000
											CHANNELS 3 Xrotation Yrotation Zrotation
											End Site
											{
												OFFSET -1.135597 3.097809 0.402452
											}
										}
									}
								}
								JOINT LeftHandMiddle1
								{
									OFFSET 11.335861 0.000000 0.000000
									CHANNELS 3 Xrotation Yrotation Zrotation
									JOINT LeftHandMiddle2
									{
										OFFSET 3.410492 0.000000 0.000000
										CHANNELS 3 Xrotation Yrotation Zrotation
										JOINT LeftHandMiddle3
										{
											OFFSET 3.312172 0.000000 0.000000
											CHANNELS 3 Xrotation Yrotation Zrotation
											End Site
											{
												OFFSET -1.150200 3.080154 0.400270
											}
										}
									}
								}
								JOINT LeftHandRing1
								{
									OFFSET 11.514786 -0.013176 -3.003090
									CHANNELS 3 Xrotation Yrotation Zrotation
									JOINT LeftHandRing2
									{
										OFFSET 3.053307 0.000000 0.000000
										CHANNELS 3 Xrotation Yrotation Zrotation
										JOINT LeftHandRing3
										{
											OFFSET 3.295807 0.000000 0.000000
											CHANNELS 3 Xrotation Yrotation Zrotation
											End Site
											{
												OFFSET -1.281006 3.013344 0.375733
											}
										}
									}
								}
								JOINT LeftHandPinky1
								{
									OFFSET 10.518692 -0.960396 -5.730441
									CHANNELS 3 Xrotation Yrotation Zrotation
									JOINT LeftHandPinky2
									{
										OFFSET 2.861649 0.000000 0.000000
										CHANNELS 3 Xrotation Yrotation Zrotation
										JOINT LeftHandPinky3
										{
											OFFSET 2.863380 0.000000 0.000000
											CHANNELS 3 Xrotation Yrotation Zrotation
											End Site
											{
												OFFSET -0.843597 2.711159 0.369971
											}
										}
									}
								}
							}
							JOINT LSleeve
							{
								OFFSET 6.676277 -0.344902 -1.011730
								CHANNELS 3 Xrotation Yrotation Zrotation
								End Site
								{
									OFFSET 0.000000 14.885353 0.000000
								}
							}
						}
					}
				}
				JOINT RightShoulder
				{
					OFFSET -6.197800 13.665199 -4.064700
					CHANNELS 3 Xrotation Yrotation Zrotation
					JOINT RightArm
					{
						OFFSET -7.778100 -0.187103 -1.709300
						CHANNELS 3 Xrotation Yrotation Zrotation
						JOINT RightForeArm
						{
							OFFSET -22.049376 0.000000 0.000000
							CHANNELS 3 Xrotation Yrotation Zrotation
							JOINT RightHand
							{
								OFFSET -23.009392 0.000000 0.000000
								CHANNELS 3 Xrotation Yrotation Zrotation
								JOINT RightHandThumb1
								{
									OFFSET -3.507191 -2.063065 3.133727
									CHANNELS 3 Xrotation Yrotation Zrotation
									JOINT RightHandThumb2
									{
										OFFSET -3.101337 -1.790558 1.790558
										CHANNELS 3 Xrotation Yrotation Zrotation
										JOINT RightHandThumb3
										{
											OFFSET -3.058640 -1.765907 1.765906
											CHANNELS 3 Xrotation Yrotation Zrotation
											End Site
											{
												OFFSET 0.415260 3.926476 -0.049563
											}
										}
									}
								}
								JOINT RightHandIndex1
								{
									OFFSET -11.334419 -0.901459 3.706815
									CHANNELS 3 Xrotation Yrotation Zrotation
									JOINT RightHandIndex2
									{
										OFFSET -3.283112 0.000000 0.000000
										CHANNELS 3 Xrotation Yrotation Zrotation
										JOINT RightHandIndex3
										{
											OFFSET -3.323853 0.000000 0.000000
											CHANNELS 3 Xrotation Yrotation Zrotation
											End Site
											{
												OFFSET 1.135597 3.097809 0.402452
											}
										}
									}
								}
								JOINT RightHandMiddle1
								{
									OFFSET -11.335861 0.000000 0.000000
									CHANNELS 3 Xrotation Yrotation Zrotation
									JOINT RightHandMiddle2
									{
										OFFSET -3.410492 0.000000 0.000000
										CHANNELS 3 Xrotation Yrotation Zrotation
										JOINT RightHandMiddle3
										{
											OFFSET -3.312172 0.000000 0.000000
											CHANNELS 3 Xrotation Yrotation Zrotation
											End Site
											{
												OFFSET 1.150200 3.080154 0.400270
											}
										}
									}
								}
								JOINT RightHandRing1
								{
									OFFSET -11.514786 -0.013176 -3.003090
									CHANNELS 3 Xrotation Yrotation Zrotation
									JOINT RightHandRing2
									{
										OFFSET -3.053307 0.000000 0.000000
										CHANNELS 3 Xrotation Yrotation Zrotation
										JOINT RightHandRing3
										{
											OFFSET -3.295807 0.000000 0.000000
											CHANNELS 3 Xrotation Yrotation Zrotation
											End Site
											{
												OFFSET 1.281006 3.013344 0.375733
											}
										}
									}
								}
								JOINT RightHandPinky1
								{
									OFFSET -10.518692 -0.960396 -5.730441
									CHANNELS 3 Xrotation Yrotation Zrotation
									JOINT RightHandPinky2
									{
										OFFSET -2.861649 0.000000 0.000000
										CHANNELS 3 Xrotation Yrotation Zrotation
										JOINT RightHandPinky3
										{
											OFFSET -2.863380 0.000000 0.000000
											CHANNELS 3 Xrotation Yrotation Zrotation
											End Site
											{
												OFFSET 0.843597 2.711159 0.369971
											}
										}
									}
								}
							}
							JOINT RSleeve
							{
								OFFSET -6.676277 -0.344902 -1.011730
								CHANNELS 3 Xrotation Yrotation Zrotation
								End Site
								{
									OFFSET 0.000000 14.885353 0.000000
								}
							}
						}
					}
				}
				JOINT Backpack
				{
					OFFSET 0.000000 -2.471497 36.677502
					CHANNELS 3 Xrotation Yrotation Zrotation
					End Site
					{
						OFFSET 0.000000 20.427315 0.000000
					}
				}
				JOINT Hood
				{
					OFFSET 0.000000 18.754097 -10.431000
					CHANNELS 3 Xrotation Yrotation Zrotation
					JOINT Hood1
					{
						OFFSET 0.000000 -5.011002 -7.685901
						CHANNELS 3 Xrotation Yrotation Zrotation
						End Site
						{
							OFFSET 0.000000 9.175140 0.000000
						}
					}
				}
				JOINT LHoodieString
				{
					OFFSET 5.250500 16.397697 3.089900
					CHANNELS 3 Xrotation Yrotation Zrotation
					JOINT LHoodieString1
					{
						OFFSET 0.257700 -6.364304 3.694600
						CHANNELS 3 Xrotation Yrotation Zrotation
						JOINT LHoodieString2
						{
							OFFSET 0.000000 -9.643799 2.679100
							CHANNELS 3 Xrotation Yrotation Zrotation
							End Site
							{
								OFFSET 0.000000 10.009018 0.000000
							}
						}
					}
				}
				JOINT RHoodieString
				{
					OFFSET -5.250500 16.397697 3.089900
					CHANNELS 3 Xrotation Yrotation Zrotation
					JOINT RHoodieString1
					{
						OFFSET -0.257700 -6.364304 3.694600
						CHANNELS 3 Xrotation Yrotation Zrotation
						JOINT RHoodieString2
						{
							OFFSET 0.000000 -9.643799 2.679100
							CHANNELS 3 Xrotation Yrotation Zrotation
							End Site
							{
								OFFSET 0.000000 10.009018 0.000000
							}
						}
					}
				}
			}
			JOINT LBackpack_Strap
			{
				OFFSET 15.223200 -7.719803 -6.610900
				CHANNELS 3 Xrotation Yrotation Zrotation
				End Site
				{
					OFFSET 0.000000 16.040596 0.000000
				}
			}
			JOINT RBackpack_Strap
			{
				OFFSET -15.223000 -7.719803 -6.610900
				CHANNELS 3 Xrotation Yrotation Zrotation
				End Site
				{
					OFFSET 0.000000 16.040596 0.000000
				}
			}
		}
	}
	JOINT BoyFacialAnim_Joint
	{
		OFFSET 1.000000 -82.208099 -1.550900
		CHANNELS 3 Xrotation Yrotation Zrotation
		End Site
		{
			OFFSET 0.000000 30.012791 0.000000
		}
	}
}
MOTION
Frames: 4
Frame Time: 0.016667
0.577900 71.727142 0.140409 10.602435 67.300647 -12.417207 0.000000 -0.000001 0.000000 -18.644670 0.585359 20.339644 51.338202 -6.322689 10.017254 -32.962951 4.316786 -13.504209 -0.000000 -0.000001 0.000001 -0.000000 -0.000001 0.000001 0.000000 -0.000002 0.000001 -34.100676 6.229382 -15.568557 47.060758 8.681263 -6.516840 -18.966773 1.500135 20.070132 0.000000 0.000001 0.000000 0.000000 0.000001 0.000000 -0.000002 0.000001 -0.000001 1.872634 -1.981221 0.657623 2.147805 -0.574862 -0.033124 2.136795 -0.620520 -0.146674 -4.452903 -10.379963 0.183234 -3.546769 -51.462334 5.883606 -0.000000 0.000000 -0.000000 -0.000000 0.000000 -0.000000 -0.000000 0.000000 -0.000000 1.127385 -10.640380 -5.486604 -1.802091 -47.065440 -47.163153 0.000150 -106.321873 0.000174 -14.181017 -27.377415 4.759038 -9.674871 0.269249 1.575512 18.503654 20.929638 -3.451929 -0.000001 -0.000001 -0.000001 -3.846422 2.878490 -61.548085 2.994990 5.108770 -60.739923 -0.000001 -0.000001 0.000001 -2.841119 4.594547 -63.952120 4.026913 5.560382 -71.804850 -0.000003 0.000000 0.000002 -4.005779 6.210704 -77.776860 4.605487 5.717413 -77.688081 0.000002 -0.000002 -0.000001 -0.923509 7.377183 -82.600865 4.957403 5.782657 -81.199550 -0.000001 -0.000001 -0.000000 -0.000000 -0.000001 -0.000000 0.469309 -2.168325 7.105745 -29.988376 -15.739976 41.708393 0.000052 109.347162 -0.000046 14.603153 20.324235 -39.470031 -6.752283 7.209119 -18.581256 15.979760 -27.517668 14.723397 0.000000 -0.000002 0.000000 -4.026030 10.918933 28.366778 3.771265 -4.572324 79.022263 -0.000001 -0.000001 0.000002 -4.881326 0.185798 47.726121 2.776641 -4.261380 66.161194 -0.000001 0.000001 -0.000004 -3.940814 -1.274183 51.126387 3.609621 -4.538084 76.987324 -0.000002 0.000000 0.000000 -2.235445 -3.308452 56.826969 2.160905 -3.932913 57.559288 -0.000000 -0.000001 0.000002 0.000003 -0.000003 0.000002 0.000000 0.000001 -0.000000 0.000000 0.000001 -0.000000 0.000000 0.000001 -0.000000 0.000000 0.000001 -0.000000 0.000000 0.000001 -0.000000 0.000000 -0.000001 -0.000000 0.000000 0.000001 -0.000000 0.000000 0.000001 -0.000000 0.000000 -0.000001 -0.000000 -0.000000 0.000001 0.000000 -0.000000 0.000001 0.000000 0.000000 -0.000001 0.000000 
0.791976 73.042122 -0.083429 9.107645 65.581496 -10.744328 0.000000 -0.000001 -0.000000 -17.038966 2.664906 19.658606 48.242774 -6.201147 10.229305 -29.359295 4.071515 -13.713101 -0.000000 -0.000000 -0.000001 -0.000000 -0.000000 -0.000000 -0.000001 0.000000 0.000001 -32.343101 5.335430 -15.938151 41.655384 8.722340 -6.537183 -15.082231 4.649919 21.387149 0.000000 0.000001 -0.000000 0.000000 0.000001 -0.000000 0.000000 -0.000000 -0.000000 1.933162 -2.266331 0.506156 2.196508 -0.669186 -0.093634 2.178838 -0.721588 -0.214625 -4.181044 -10.086963 0.380455 -3.435691 -49.846133 5.967144 0.000000 0.000000 -0.000000 0.000000 0.000000 -0.000000 0.000000 0.000000 -0.000000 1.159394 -10.584913 -4.968926 -3.440712 -46.440474 -48.700540 0.000056 -107.022255 0.000050 -13.940647 -26.498749 3.948663 -9.674871 0.269250 1.575515 18.506572 20.943327 -3.449976 -0.000001 -0.000001 -0.000001 -3.845305 2.879143 -61.562544 2.996290 5.109489 -60.754430 0.000001 -0.000001 0.000002 -2.840560 4.596735 -63.966354 4.028341 5.560848 -71.819596 -0.000001 0.000001 -0.000003 -4.004831 6.213158 -77.791019 4.606966 5.717734 -77.702950 -0.000001 0.000003 0.000000 -0.922263 7.378900 -82.615250 4.958903 5.782895 -81.214241 -0.000000 -0.000002 0.000005 -0.000001 0.000000 -0.000000 0.472923 -1.987577 7.167156 -29.704807 -14.959987 41.837801 0.000174 110.239622 -0.000178 15.232234 19.900571 -39.661457 -6.752284 7.209119 -18.581256 15.985359 -27.530478 14.722611 0.000000 0.000006 -0.000001 -4.025368 10.917526 28.380997 3.772419 -4.572545 79.036777 -0.000000 0.000000 0.000005 -4.881944 0.183414 47.740205 2.777744 -4.261868 66.176043 -0.000001 0.000000 -0.000002 -3.941072 -1.276348 51.140591 3.610792 -4.538355 77.002077 0.000000 -0.000001 0.000000 -2.235190 -3.310188 56.841278 2.161906 -3.933547 57.573891 -0.000000 0.000001 0.000000 0.000002 0.000001 -0.000002 -0.000001 0.000001 0.000000 -0.000001 0.000001 0.000000 -0.000001 0.000001 0.000000 -0.000001 0.000001 0.000000 -0.000001 0.000001 0.000000 -0.000001 0.000001 0.000000 -0.000001 0.000001 0.000000 -0.000001 0.000001 0.000000 -0.000001 0.000001 0.000000 0.000001 0.000002 -0.000000 0.000001 0.000002 -0.000000 0.000000 -0.000001 -0.000000 
1.026897 74.496498 -0.307655 7.885773 63.573891 -9.310632 -0.000000 0.000001 -0.000000 -15.541665 4.700903 18.920068 45.036717 -5.860301 10.234761 -24.799872 3.674874 -13.814537 0.000000 -0.000000 0.000001 0.000000 -0.000000 0.000001 -0.000000 0.000000 0.000004 -30.257803 4.291101 -16.128455 35.222616 8.740563 -6.557910 -10.477698 7.872525 22.302665 -0.000000 0.000001 0.000000 -0.000000 0.000001 0.000000 -0.000003 -0.000002 -0.000002 1.876086 -2.534903 0.292266 2.147878 -0.743391 -0.181095 2.123235 -0.800160 -0.306784 -3.798645 -9.756330 0.643418 -3.007114 -47.953146 6.067487 0.000000 0.000000 0.000000 0.000000 0.000000 0.000000 0.000000 0.000000 0.000000 1.197097 -10.412342 -4.302574 -5.193336 -45.854246 -50.234119 -0.000057 -107.756008 -0.000052 -13.352786 -25.456298 3.281937 -9.674872 0.269251 1.575512 18.511329 20.965583 -3.446837 0.000002 -0.000001 -0.000000 -3.843482 2.880181 -61.586047 2.998399 5.110658 -60.778022 -0.000002 -0.000004 0.000003 -2.839667 4.600284 -63.989488 4.030668 5.561607 -71.843550 0.000001 0.000002 0.000000 -4.003300 6.217149 -77.814016 4.609363 5.718238 -77.727116 -0.000004 0.000002 -0.000002 -0.920213 7.381685 -82.638650 4.961300 5.783266 -81.238120 -0.000000 -0.000004 -0.000001 -0.000000 -0.000001 0.000001 0.488558 -1.683402 7.375538 -29.457202 -13.864257 41.538185 0.000167 111.001659 -0.000167 15.563237 19.335499 -39.736077 -6.752282 7.209114 -18.581256 15.994459 -27.551284 14.721363 0.000001 0.000002 0.000000 -4.024292 10.915237 28.404136 3.774297 -4.572912 79.060328 -0.000000 -0.000000 0.000002 -4.882934 0.179549 47.763124 2.779531 -4.262656 66.200154 -0.000002 -0.000000 -0.000004 -3.941487 -1.279854 51.163615 3.612689 -4.538790 77.026058 -0.000001 0.000000 0.000004 -2.234777 -3.313020 56.864545 2.163539 -3.934576 57.597660 0.000001 -0.000001 0.000003 -0.000001 0.000002 -0.000001 0.000000 0.000002 -0.000000 0.000000 0.000002 -0.000000 0.000000 0.000002 -0.000000 0.000000 0.000002 -0.000000 0.000000 0.000002 -0.000000 -0.000001 0.000002 -0.000000 0.000000 0.000002 -0.000000 0.000000 0.000002 -0.000000 -0.000001 0.000002 -0.000000 0.000001 0.000000 0.000000 0.000001 0.000000 0.000000 -0.000000 0.000001 -0.000000 
1.333952 76.389168 -0.534534 7.062133 60.811401 -8.217052 -0.000000 0.000001 0.000000 -14.214070 6.800915 18.186898 41.316839 -5.039351 9.604376 -17.857065 2.867890 -13.749477 -0.000000 -0.000000 0.000002 -0.000000 -0.000000 0.000002 0.000001 -0.000001 -0.000002 -27.256739 2.842754 -15.598967 25.867327 8.537208 -7.068619 -4.034218 11.893452 22.597293 -0.000000 0.000001 0.000000 -0.000000 0.000001 0.000000 -0.000000 0.000000 0.000000 1.463870 -2.768776 -0.064835 1.806340 -0.774962 -0.347969 1.773440 -0.829132 -0.471257 -3.055413 -9.319751 1.116650 -1.591862 -45.242948 6.221004 0.000000 0.000000 0.000000 0.000000 0.000000 0.000000 0.000000 0.000000 0.000000 1.239730 -9.854035 -3.184284 -7.337288 -45.581455 -51.880338 0.000096 -108.518401 0.000105 -11.745958 -23.953251 2.992334 -9.674870 0.269244 1.575511 18.520717 21.009541 -3.440660 0.000000 0.000000 -0.000000 -3.839875 2.882238 -61.632472 3.002553 5.112965 -60.824590 -0.000002 0.000000 0.000000 -2.837893 4.607302 -64.035189 4.035248 5.563103 -71.890869 0.000002 -0.000000 0.000002 -4.000255 6.225053 -77.859492 4.614125 5.719274 -77.774879 -0.000001 0.000002 -0.000002 -0.916165 7.387166 -82.684856 4.966059 5.783986 -81.285350 -0.000003 0.000001 0.000002 -0.000003 -0.000001 0.000001 0.528484 -1.104070 8.063765 -29.166520 -11.793688 40.000265 0.000054 111.367054 -0.000028 15.073736 18.358082 -39.503307 -6.752284 7.209116 -18.581260 16.012468 -27.592439 14.718935 -0.000000 -0.000001 0.000000 -4.022161 10.910740 28.449828 3.778014 -4.573623 79.106957 -0.000001 -0.000000 0.000002 -4.884894 0.171895 47.808374 2.783075 -4.264210 66.247760 -0.000001 0.000000 -0.000002 -3.942289 -1.286779 51.209166 3.616433 -4.539651 77.073412 -0.000002 0.000000 -0.000001 -2.233952 -3.318610 56.910509 2.166758 -3.936617 57.644570 0.000001 -0.000000 0.000000 -0.000000 -0.000001 -0.000002 -0.000001 0.000003 -0.000000 -0.000001 0.000003 -0.000000 -0.000001 0.000003 -0.000000 -0.000001 0.000003 -0.000000 -0.000001 0.000003 -0.000000 -0.000001 -0.000000 -0.000000 -0.000001 0.000003 -0.000000 -0.000001 0.000003 -0.000000 -0.000001 -0.000000 -0.000000 -0.000001 -0.000000 -0.000000 -0.000001 -0.000000 -0.000000 -0.000000 0.000001 0.000000 
